<svg xmlns="http://www.w3.org/2000/svg" width="2400" height="1600" viewBox="0 0 2400 1600">
  <defs>
    <linearGradient id="sea" x1="0" y1="0" x2="1" y2="1">
      <stop offset="0" stop-color="#142432"/>
      <stop offset="0.58" stop-color="#1e313a"/>
      <stop offset="1" stop-color="#0b1b28"/>
    </linearGradient>
    <filter id="glow" x="-20%" y="-20%" width="140%" height="140%">
      <feGaussianBlur stdDeviation="9" result="blur"/>
      <feMerge>
        <feMergeNode in="blur"/>
        <feMergeNode in="SourceGraphic"/>
      </feMerge>
    </filter>
  </defs>
  <rect width="2400" height="1600" fill="#07111a"/>
  <rect x="60" y="60" width="2280" height="1480" rx="22" fill="url(#sea)" stroke="#6ca5ba" stroke-width="3" opacity="0.96"/>
  <path d="M114 1288 C360 1204 592 1244 790 1194 C1010 1139 1242 1244 1516 1232 C1718 1223 1944 1108 2298 1196 L2298 1510 L114 1510 Z" fill="#10202b" stroke="#f27f72" stroke-width="5" stroke-dasharray="18 12" opacity="0.9"/>
  <path d="M140 310 C420 210 760 250 1008 346 C1230 430 1580 374 1910 284 C2100 232 2260 260 2320 340 L2320 980 C2080 900 1880 922 1660 994 C1370 1090 1122 1020 856 920 C600 824 340 842 140 930 Z" fill="#293b42" stroke="#7698a8" stroke-width="2" opacity="0.68"/>
  <path d="M100 1040 C350 970 640 1010 910 934 C1250 838 1560 850 1840 720 C2050 622 2230 620 2320 680" fill="none" stroke="#9ab9c4" stroke-width="10" opacity="0.22"/>
  <path d="M190 610 C520 560 840 610 1120 700 C1450 805 1720 760 2100 560" fill="none" stroke="#9ab9c4" stroke-width="8" opacity="0.18"/>
  <path d="M420 1320 C700 1110 1120 1180 1460 980 C1700 838 1818 710 2130 760" fill="none" stroke="#d7eef5" stroke-width="4" stroke-dasharray="14 16" opacity="0.45"/>
  <circle cx="950" cy="440" r="128" fill="#152b35" stroke="#ffd082" stroke-width="4" opacity="0.72"/>
  <circle cx="1340" cy="680" r="230" fill="#351c22" stroke="#ff786f" stroke-width="5" opacity="0.45"/>
  <circle cx="1510" cy="1120" r="112" fill="#132f38" stroke="#78e4ff" stroke-width="4" opacity="0.54"/>
  <circle cx="660" cy="980" r="92" fill="#172832" stroke="#9bb9c8" stroke-width="3" opacity="0.56"/>
  <circle cx="1850" cy="810" r="98" fill="#172832" stroke="#9bb9c8" stroke-width="3" opacity="0.48"/>
  <circle cx="2050" cy="1020" r="116" fill="#23343d" stroke="#ff786f" stroke-width="4" opacity="0.5"/>
  <g opacity="0.22">
    <path d="M180 180 H2320 M180 380 H2320 M180 580 H2320 M180 780 H2320 M180 980 H2320 M180 1180 H2320 M180 1380 H2320" stroke="#9ed2e3" stroke-width="1"/>
    <path d="M200 140 V1500 M400 140 V1500 M600 140 V1500 M800 140 V1500 M1000 140 V1500 M1200 140 V1500 M1400 140 V1500 M1600 140 V1500 M1800 140 V1500 M2000 140 V1500 M2200 140 V1500" stroke="#9ed2e3" stroke-width="1"/>
  </g>
  <g filter="url(#glow)">
    <text x="120" y="150" fill="#edf6f8" font-size="72" font-family="Microsoft YaHei, sans-serif" font-weight="700">静海市主舞台概念地图</text>
    <text x="124" y="212" fill="#9eb5bf" font-size="30" font-family="Microsoft YaHei, sans-serif">PLACEHOLDER BASE MAP / 等待美术高精度地图资产</text>
  </g>
  <text x="930" y="452" text-anchor="middle" fill="#fff3d4" font-size="34" font-family="Microsoft YaHei, sans-serif">旧北站</text>
  <text x="1340" y="692" text-anchor="middle" fill="#ffd7d4" font-size="34" font-family="Microsoft YaHei, sans-serif">废站核心</text>
  <text x="1510" y="1130" text-anchor="middle" fill="#d6f8ff" font-size="30" font-family="Microsoft YaHei, sans-serif">档案室</text>
  <text x="660" y="990" text-anchor="middle" fill="#d7eef5" font-size="28" font-family="Microsoft YaHei, sans-serif">派出所</text>
  <text x="2050" y="1032" text-anchor="middle" fill="#ffd7d4" font-size="30" font-family="Microsoft YaHei, sans-serif">异常边缘</text>
</svg>
