<svg xmlns="http://www.w3.org/2000/svg" width="1600" height="1000" viewBox="0 0 1600 1000">
  <defs>
    <linearGradient id="hall" x1="0" y1="0" x2="1" y2="1">
      <stop offset="0" stop-color="#1b2a33"/>
      <stop offset="0.58" stop-color="#293840"/>
      <stop offset="1" stop-color="#0b151d"/>
    </linearGradient>
    <filter id="glow" x="-20%" y="-20%" width="140%" height="140%">
      <feGaussianBlur stdDeviation="7" result="blur"/>
      <feMerge>
        <feMergeNode in="blur"/>
        <feMergeNode in="SourceGraphic"/>
      </feMerge>
    </filter>
  </defs>
  <rect width="1600" height="1000" fill="#07111a"/>
  <rect x="50" y="50" width="1500" height="900" rx="20" fill="url(#hall)" stroke="#78b1c4" stroke-width="3"/>
  <path d="M140 280 H1460 M120 520 H1480 M140 740 H1460" stroke="#aac7d1" stroke-width="10" opacity="0.24"/>
  <path d="M780 160 V860" stroke="#ffd082" stroke-width="8" stroke-dasharray="18 16" opacity="0.7"/>
  <path d="M640 360 L1040 360 L1180 640 L790 760 L520 610 Z" fill="#391f25" stroke="#ff786f" stroke-width="5" opacity="0.42"/>
  <path d="M280 210 L1280 180 L1460 780 L360 860 Z" fill="#12323a" stroke="#78e4ff" stroke-width="4" stroke-dasharray="16 10" opacity="0.26"/>
  <g opacity="0.22">
    <path d="M120 120 H1480 M120 920 H1480 M120 120 V920 M1480 120 V920" stroke="#9ed2e3" stroke-width="2"/>
    <path d="M260 120 V920 M420 120 V920 M580 120 V920 M740 120 V920 M900 120 V920 M1060 120 V920 M1220 120 V920 M1380 120 V920" stroke="#9ed2e3" stroke-width="1"/>
  </g>
  <g filter="url(#glow)">
    <text x="90" y="120" fill="#edf6f8" font-size="52" font-family="Microsoft YaHei, sans-serif" font-weight="700">静海旧北站详细图</text>
    <text x="94" y="168" fill="#9eb5bf" font-size="24" font-family="Microsoft YaHei, sans-serif">PLACEHOLDER DISTRICT MAP / 等待美术车站局部资产</text>
  </g>
  <text x="780" y="505" text-anchor="middle" fill="#fff3d4" font-size="34" font-family="Microsoft YaHei, sans-serif">候车区隔离门</text>
  <text x="520" y="560" text-anchor="middle" fill="#d6f8ff" font-size="26" font-family="Microsoft YaHei, sans-serif">小夏侧</text>
  <text x="1060" y="560" text-anchor="middle" fill="#ffd7d4" font-size="26" font-family="Microsoft YaHei, sans-serif">母亲侧</text>
</svg>
